<svg version="1.1" viewBox="0.0 0.0 188.9763779527559 188.9763779527559" fill="none" stroke="none" stroke-linecap="square" stroke-miterlimit="10" xmlns:xlink="http://www.w3.org/1999/xlink" xmlns="http://www.w3.org/2000/svg"><clipPath id="p.0"><path d="m0 0l188.97638 0l0 188.97638l-188.97638 0l0 -188.97638z" clip-rule="nonzero"/></clipPath><g clip-path="url(#p.0)"><path fill="#000000" fill-opacity="0.0" d="m0 0l188.97638 0l0 188.97638l-188.97638 0z" fill-rule="evenodd"/><path fill="#efefef" d="m0 17.741102l0 0c0 -9.79814 7.942962 -17.741102 17.741102 -17.741102l153.49417 0c4.7052307 0 9.217758 1.8691465 12.544861 5.1962485c3.3271027 3.3271022 5.1962433 7.839621 5.1962433 12.544853l0 153.65166c0 9.7981415 -7.9429626 17.741104 -17.741104 17.741104l-153.49417 0c-9.79814 0 -17.741102 -7.9429626 -17.741102 -17.741104z" fill-rule="evenodd"/><path fill="#ea9999" d="m171.23482 189.14015l-153.49326 0c-4.7053537 0 -9.217988 -1.8691864 -12.545176 -5.1963806c-3.3271875 -3.327179 -5.196382 -7.839813 -5.196382 -12.545166l0 -24.557663c0 -8.69751E-4 7.050634E-4 -0.0015716553 0.0015748031 -0.0015716553l188.97481 0.0015716553l0 0c8.69751E-4 0 0.0015716553 7.019043E-4 0.0015716553 0.0015716553l-0.0015716553 24.556091l0 0c0 9.798386 -7.943161 17.741547 -17.741562 17.741547z" fill-rule="evenodd"/><path fill="#ea9999" d="m0 168.63097l0 -88.54803l88.548035 88.54803z" fill-rule="evenodd"/><path fill="#ea9999" d="m57.783726 168.62834l0 -60.548027l-60.54803 60.548027z" fill-rule="evenodd"/><path fill="#ea9999" d="m57.783726 168.62834l0 -60.548027l60.54803 60.548027z" fill-rule="evenodd"/><path fill="#ea9999" d="m160.8315 168.62625l0 -119.2126l-119.2126 119.2126z" fill-rule="evenodd"/><path fill="#ea9999" d="m160.66873 168.62625l0 -119.2126l119.212585 119.2126z" fill-rule="evenodd"/><path fill="#000000" fill-opacity="0.0" d="m-3.375328 77.11024l48.755905 48.755905" fill-rule="evenodd"/><path stroke="#cc0000" stroke-width="8.0" stroke-linejoin="round" stroke-linecap="butt" d="m-3.375328 77.11024l48.755905 48.755905" fill-rule="evenodd"/><path fill="#000000" fill-opacity="0.0" d="m41.153484 124.462425l19.181103 -19.181099" fill-rule="evenodd"/><path stroke="#cc0000" stroke-width="8.0" stroke-linejoin="round" stroke-linecap="butt" d="m41.153484 124.462425l19.181103 -19.181099" fill-rule="evenodd"/><path fill="#000000" fill-opacity="0.0" d="m55.59047 106.20505l25.644096 25.644089" fill-rule="evenodd"/><path stroke="#cc0000" stroke-width="8.0" stroke-linejoin="round" stroke-linecap="butt" d="m55.59047 106.20505l25.644096 25.644089" fill-rule="evenodd"/><path fill="#000000" fill-opacity="0.0" d="m76.963295 133.28342l85.448814 -85.44881" fill-rule="evenodd"/><path stroke="#cc0000" stroke-width="8.0" stroke-linejoin="round" stroke-linecap="butt" d="m76.963295 133.28342l85.448814 -85.44881" fill-rule="evenodd"/><path fill="#cc0000" d="m147.98578 43.334038l25.448822 -6.80315l-6.8031464 25.448822z" fill-rule="evenodd"/></g></svg>